<?xml version="1.0" encoding="UTF-8"?>
<!DOCTYPE svg PUBLIC "-//W3C//DTD SVG 1.1//EN" "http://www.w3.org/Graphics/SVG/1.1/DTD/svg11.dtd">
<!-- Creator: CorelDRAW X7 -->
<svg xmlns="http://www.w3.org/2000/svg" xml:space="preserve" width="3000px" height="3000px" version="1.1" style="shape-rendering:geometricPrecision; text-rendering:geometricPrecision; image-rendering:optimizeQuality; fill-rule:evenodd; clip-rule:evenodd"
viewBox="0 0 3000 3000"
 xmlns:xlink="http://www.w3.org/1999/xlink">
 <defs>
  <style type="text/css">
   <![CDATA[
    .fil2 {fill:#101820;fill-rule:nonzero}
    .fil0 {fill:#FE5000;fill-rule:nonzero}
    .fil1 {fill:white;fill-rule:nonzero}
   ]]>
  </style>
 </defs>
 <g id="Layer_x0020_1">
  <metadata id="CorelCorpID_0Corel-Layer"/>
  <g id="_2658547406896">
   <path class="fil0" d="M2556 1056c0,583 -473,1056 -1056,1056 -583,0 -1056,-473 -1056,-1056 0,-583 473,-1056 1056,-1056 583,0 1056,473 1056,1056z"/>
   <path class="fil1" d="M1890 1059c0,-204 142,-374 333,-417 -31,-6 -62,-10 -94,-10 -236,0 -428,191 -428,427 0,236 192,427 428,427 32,0 63,-4 94,-10 -191,-43 -333,-213 -333,-417z"/>
   <path class="fil1" d="M871 632c-32,0 -64,4 -94,10 191,43 333,213 333,417 0,204 -142,374 -333,417 30,6 62,10 94,10 236,0 427,-191 427,-427 0,-236 -191,-427 -427,-427z"/>
   <polygon class="fil1" points="1529,1592 1511,1592 1511,785 1529,785 "/>
   <path class="fil1" d="M1526 640c0,53 -26,95 -26,95 0,0 -26,-42 -26,-95 0,-53 26,-96 26,-96 0,0 26,43 26,96z"/>
   <path class="fil1" d="M1490 810l-69 -66c-23,-21 -35,-51 -35,-81l0 -25 68 65c23,21 36,51 36,82l0 25z"/>
   <path class="fil1" d="M1490 915l-69 -65c-23,-21 -35,-51 -35,-82l0 -24 68 65c23,21 36,51 36,82l0 24z"/>
   <path class="fil1" d="M1490 1021l-69 -65c-23,-22 -35,-51 -35,-82l0 -25 68 66c23,21 36,50 36,81l0 25z"/>
   <path class="fil1" d="M1490 1127l-69 -65c-23,-22 -35,-51 -35,-82l0 -25 68 65c23,22 36,51 36,82l0 25z"/>
   <path class="fil1" d="M1490 1233l-69 -66c-23,-21 -35,-51 -35,-81l0 -25 68 65c23,21 36,51 36,82l0 25z"/>
   <path class="fil1" d="M1490 1338l-69 -65c-23,-21 -35,-51 -35,-82l0 -24 68 65c23,21 36,51 36,82l0 24z"/>
   <path class="fil1" d="M1490 1444l-69 -65c-23,-21 -35,-51 -35,-82l0 -25 68 66c23,21 36,51 36,81l0 25z"/>
   <path class="fil1" d="M1490 1550l-69 -65c-23,-22 -35,-51 -35,-82l0 -25 68 65c23,22 36,51 36,82l0 25z"/>
   <path class="fil1" d="M1511 810l68 -66c23,-21 36,-51 36,-81l0 -25 -69 65c-23,21 -35,51 -35,82l0 25z"/>
   <path class="fil1" d="M1511 915l68 -65c23,-21 36,-51 36,-82l0 -24 -69 65c-23,21 -35,51 -35,82l0 24z"/>
   <path class="fil1" d="M1511 1021l68 -65c23,-22 36,-51 36,-82l0 -25 -69 66c-23,21 -35,50 -35,81l0 25z"/>
   <path class="fil1" d="M1511 1127l68 -65c23,-22 36,-51 36,-82l0 -25 -69 65c-23,22 -35,51 -35,82l0 25z"/>
   <path class="fil1" d="M1511 1233l68 -66c23,-21 36,-51 36,-81l0 -25 -69 65c-23,21 -35,51 -35,82l0 25z"/>
   <path class="fil1" d="M1511 1338l68 -65c23,-21 36,-51 36,-82l0 -24 -69 65c-23,21 -35,51 -35,82l0 24z"/>
   <path class="fil1" d="M1511 1444l68 -65c23,-21 36,-51 36,-82l0 -25 -69 66c-23,21 -35,51 -35,81l0 25z"/>
   <path class="fil1" d="M1511 1550l68 -65c23,-22 36,-51 36,-82l0 -25 -69 65c-23,22 -35,51 -35,82l0 25z"/>
   <path class="fil2" d="M2049 2979c-56,-14 -102,-33 -138,-56l69 -146c34,21 72,38 116,50 44,13 87,19 129,19 81,0 121,-19 121,-57 0,-20 -11,-34 -34,-44 -23,-10 -60,-20 -111,-31 -56,-11 -103,-23 -140,-36 -38,-13 -70,-34 -97,-62 -26,-29 -40,-68 -40,-116 0,-43 12,-81 37,-116 25,-34 62,-61 111,-81 49,-20 110,-30 181,-30 49,0 97,5 144,16 48,10 89,25 126,45l-65 147c-71,-36 -140,-54 -206,-54 -42,0 -72,6 -91,17 -19,12 -29,27 -29,46 0,18 11,32 34,42 23,9 59,19 109,29 57,11 104,23 141,36 37,13 69,34 96,62 28,28 41,67 41,115 0,42 -12,80 -37,114 -25,34 -62,61 -111,82 -50,20 -110,30 -181,30 -60,0 -118,-7 -175,-21zm-613 -251l-75 80 0 178 -200 0 0 -712 200 0 0 296 275 -296 222 0 -291 315 306 397 -234 0 -203 -258zm-586 -113c21,-18 31,-44 31,-77 0,-33 -10,-59 -31,-77 -21,-18 -52,-28 -93,-28l-112 0 0 209 112 0c41,0 72,-9 93,-27zm86 -308c48,21 84,52 110,91 26,40 38,87 38,140 0,54 -12,100 -38,139 -26,39 -62,70 -110,91 -47,21 -103,32 -167,32l-124 0 0 186 -201 0 0 -711 325 0c64,0 120,11 167,32z"/>
  </g>
 </g>
</svg>
